<svg height="100%" width="100%" id="svg" viewBox="0 0 1440 600" xmlns="http://www.w3.org/2000/svg" class="transition duration-300 ease-in-out delay-150"><defs><linearGradient id="gradient"><stop offset="5%" stop-color="#8338ec88"></stop><stop offset="95%" stop-color="#33cfc288"></stop></linearGradient></defs><path d="M 0,600 C 0,600 0,200 0,200 C 77.3397129186603,189.46411483253587 154.6794258373206,178.92822966507177 258,167 C 361.3205741626794,155.07177033492823 490.62200956937795,141.7511961722488 590,141 C 689.377990430622,140.2488038277512 758.8325358851673,152.06698564593302 855,173 C 951.1674641148327,193.93301435406698 1074.0478468899523,223.98086124401914 1176,230 C 1277.9521531100477,236.01913875598086 1358.9760765550238,218.00956937799043 1440,200 C 1440,200 1440,600 1440,600 Z" stroke="none" stroke-width="0" fill="url(#gradient)" class="transition-all duration-300 ease-in-out delay-150" transform="rotate(-180 720 300)"></path><defs><linearGradient id="gradient"><stop offset="5%" stop-color="#8338ecff"></stop><stop offset="95%" stop-color="#33cfc2ff"></stop></linearGradient></defs><path d="M 0,600 C 0,600 0,400 0,400 C 97.80861244019138,416.7846889952153 195.61722488038276,433.56937799043055 286,440 C 376.38277511961724,446.43062200956945 459.3397129186603,442.5071770334929 565,412 C 670.6602870813397,381.4928229665071 799.023923444976,324.4019138755981 902,325 C 1004.976076555024,325.5980861244019 1082.5645933014355,383.88516746411483 1168,406 C 1253.4354066985645,428.11483253588517 1346.7177033492821,414.0574162679426 1440,400 C 1440,400 1440,600 1440,600 Z" stroke="none" stroke-width="0" fill="url(#gradient)" class="transition-all duration-300 ease-in-out delay-150" transform="rotate(-180 720 300)"></path></svg>